<svg width="19" height="20" viewBox="0 0 19 20" fill="none" xmlns="http://www.w3.org/2000/svg">
<path d="M13.6666 2.49993C13.8855 2.28106 14.1453 2.10744 14.4313 1.98899C14.7173 1.87054 15.0238 1.80957 15.3333 1.80957C15.6428 1.80957 15.9493 1.87054 16.2353 1.98899C16.5213 2.10744 16.7811 2.28106 17 2.49993C17.2188 2.7188 17.3924 2.97863 17.5109 3.2646C17.6294 3.55057 17.6903 3.85706 17.6903 4.16659C17.6903 4.47612 17.6294 4.78262 17.5109 5.06859C17.3924 5.35455 17.2188 5.61439 17 5.83326L5.74996 17.0833L1.16663 18.3333L2.41663 13.7499L13.6666 2.49993Z" stroke="#667085" stroke-width="1.66667" stroke-linecap="round" stroke-linejoin="round"/>
</svg>
