<svg width="145" height="32" viewBox="0 0 145 32" fill="none" xmlns="http://www.w3.org/2000/svg">
<g clip-path="url(#clip0_832_11592)">
<mask id="mask0_832_11592" style="mask-type:luminance" maskUnits="userSpaceOnUse" x="0" y="0" width="32" height="32">
<path d="M32 0H0V31.7193H32V0Z" fill="white"/>
</mask>
<g mask="url(#mask0_832_11592)">
<mask id="mask1_832_11592" style="mask-type:luminance" maskUnits="userSpaceOnUse" x="0" y="0" width="32" height="32">
<path d="M32 0H0V31.7193H32V0Z" fill="white"/>
</mask>
<g mask="url(#mask1_832_11592)">
<path fill-rule="evenodd" clip-rule="evenodd" d="M5.66261 10.6748C6.99057 6.05983 10.4606 2.96939 15.0445 2.31921C16.704 2.08383 18.8738 2.42334 20.6057 3.1895C22.661 4.09826 25.0927 6.11052 26.7977 8.31322C28.183 10.1026 28.1914 10.1867 26.8598 8.93004C23.5236 5.78271 19.1321 4.58883 15.2457 5.77256C12.7758 6.52497 10.8986 8.05247 9.92433 10.1024C9.41557 11.1732 9.35477 11.4422 9.30298 12.8483C9.25548 14.1406 9.30367 14.5788 9.58499 15.4118C10.2475 17.3739 11.4473 18.7357 13.2626 19.5858C14.0662 19.9621 14.3773 20.0187 15.6418 20.0187H17.0964L16.5768 20.4548C16.2914 20.6947 15.603 21.1156 15.0476 21.3901C14.1019 21.8576 13.9337 21.8889 12.3977 21.8842C10.3466 21.8782 9.36693 21.5317 8.08186 20.3584C6.96483 19.3383 6.27848 18.2688 5.74645 16.7184C5.16908 15.0362 5.13416 12.5115 5.66261 10.6748ZM3.46081 9.37914C4.23131 8.21114 6.43139 5.92767 7.71601 4.96259C8.27436 4.54315 8.75477 4.19926 8.78348 4.19851C8.81214 4.19755 8.45534 4.63542 7.99066 5.17119C6.44341 6.95537 5.51921 8.57279 4.89224 10.5935C4.60373 11.5239 4.53123 12.1164 4.53045 13.5497C4.52905 16.4665 5.26869 18.5205 6.97932 20.3492C8.4963 21.971 10.1918 22.7466 12.2198 22.7466C15.0489 22.7466 17.4809 21.2841 18.6708 18.8672C19.1304 17.934 19.1753 17.7134 19.1753 16.385V14.927L19.6213 15.4464C19.8666 15.7322 20.2874 16.4218 20.5566 16.9791C21.0094 17.9171 21.0456 18.1135 21.0456 19.629C21.0456 21.1404 21.0083 21.3448 20.5566 22.2981C19.4071 24.7242 17.1792 26.1946 13.9736 26.643C11.6686 26.9653 8.83957 26.2838 6.54426 24.8531C3.41014 22.8997 1.46073 19.4495 1.43467 15.81C1.41817 13.4848 2.02656 11.5535 3.46081 9.37914ZM10.4772 10.5476C11.5704 8.23994 13.8228 6.6751 16.6885 6.23254C18.638 5.93155 21.0818 6.34403 23.0843 7.31217C25.454 8.45791 27.2115 10.1264 28.259 12.2247C30.1075 15.9273 29.8953 19.7012 27.6438 23.1685C26.6711 24.6664 24.2697 27.0617 22.6046 28.1945L21.3575 29.0428L22.6824 27.6378C26.0207 24.0976 27.1764 19.6544 25.7998 15.653C24.2038 11.0146 19.5756 8.86943 15.4127 10.8387C13.0905 11.9373 11.365 14.7682 11.6914 16.9446L11.8015 17.6785L11.4681 17.377C11.2849 17.2111 10.8747 16.5488 10.5566 15.9052C10.0054 14.7899 9.97827 14.6616 9.97827 13.1681C9.97827 11.7285 10.0188 11.5156 10.4772 10.5476ZM14.6958 12.2657C15.1217 11.8102 16.2681 11.2168 17.2266 10.9559C18.1266 10.711 19.1775 10.698 20.2198 10.9191C22.7565 11.4574 24.8101 13.6344 25.5626 16.5831C25.9006 17.9059 25.8692 20.2446 25.4936 21.7122C24.6914 24.8488 22.3517 27.8476 19.7207 29.111C18.1409 29.8697 16.9386 30.2055 15.3493 30.3321C13.2359 30.5007 10.5758 29.7238 8.5481 28.3458C7.41251 27.5742 5.29411 25.4707 4.26061 24.0885C2.93657 22.3179 2.89278 22.1413 4.06311 23.2945C5.28977 24.5032 6.5438 25.3814 8.07797 26.1058C9.74367 26.8925 10.9745 27.165 12.862 27.165C15.7659 27.165 17.8473 26.3648 19.6553 24.5535C20.9283 23.2782 21.4967 22.2133 21.7771 20.5778C22.2607 17.7567 20.7171 14.4621 18.3447 13.2516C17.3154 12.7265 15.8829 12.4144 15.0619 12.5365L14.343 12.6434L14.6958 12.2657ZM-10.3298 48.6002L-10.3158 48.0041H-15.5579V43.8636H-11.2071V43.2811H-15.5579V39.2671H-10.3298V38.6706H-16.2807V48.6002H-10.3298ZM-7.81419 48.6002V38.3899H-8.48783V48.6002H-7.81419ZM-4.70955 48.6002V41.618H-5.3762V48.6002H-4.70955ZM-4.47797 39.4495C-4.44056 39.3749 -4.42183 39.2952 -4.42183 39.211C-4.42183 39.1267 -4.44056 39.0473 -4.47797 38.9723C-4.51073 38.8929 -4.55517 38.825 -4.61131 38.7689C-4.66744 38.7127 -4.73295 38.6683 -4.80779 38.6355C-4.88267 38.603 -4.96216 38.5864 -5.04637 38.5864C-5.13062 38.5864 -5.21016 38.603 -5.285 38.6355C-5.35983 38.6683 -5.42534 38.7127 -5.48148 38.7689C-5.53762 38.825 -5.5821 38.8929 -5.61483 38.9723C-5.64756 39.0473 -5.66392 39.1267 -5.66392 39.211C-5.66392 39.2952 -5.64756 39.3749 -5.61483 39.4495C-5.5821 39.5197 -5.53762 39.5829 -5.48148 39.639C-5.42534 39.6952 -5.35983 39.7398 -5.285 39.7723C-5.21016 39.8052 -5.13062 39.8215 -5.04637 39.8215C-4.96216 39.8215 -4.88267 39.8052 -4.80779 39.7723C-4.73295 39.7398 -4.66744 39.6952 -4.61131 39.639C-4.55517 39.5829 -4.51073 39.5197 -4.47797 39.4495ZM-1.52841 48.3195C-1.26175 48.5819 -0.892176 48.7127 -0.419641 48.7127C-0.124905 48.7127 0.158129 48.6542 0.429482 48.5371C0.705498 48.4155 0.932386 48.2564 1.11018 48.0599L0.927729 47.7655C0.89028 47.7188 0.852867 47.6951 0.815445 47.6951C0.782692 47.6951 0.738253 47.7211 0.682116 47.7723C0.625973 47.8194 0.553438 47.8729 0.464571 47.9337C0.375671 47.9899 0.270409 48.0439 0.148781 48.0951C0.0271244 48.1422 -0.117887 48.1655 -0.286309 48.1655C-0.422 48.1655 -0.548313 48.1444 -0.665256 48.1024C-0.782225 48.0599 -0.885159 47.9945 -0.974027 47.9058C-1.05824 47.8171 -1.12608 47.7047 -1.17754 47.5689C-1.22433 47.4286 -1.24771 47.2626 -1.24771 47.0706V42.3338H0.955797V41.8355H-1.24771V39.1689H-1.5635C-1.61498 39.1689 -1.65473 39.1854 -1.6828 39.218C-1.71087 39.2508 -1.72959 39.2881 -1.73894 39.3302L-1.90736 41.8285L-3.10035 41.9127V42.1723C-3.10035 42.224 -3.08398 42.2636 -3.05122 42.2916C-3.01849 42.3197 -2.97639 42.3338 -2.9249 42.3338H-1.9214V47.1058C-1.9214 47.653 -1.79042 48.058 -1.52841 48.3195ZM7.19185 43.4004C7.29946 43.6952 7.35326 44.0297 7.35326 44.4039H2.72871C2.77081 44.039 2.85502 43.7092 2.98134 43.4144C3.10766 43.1197 3.27375 42.8671 3.47959 42.6565C3.69011 42.446 3.93806 42.2846 4.22344 42.1723C4.50883 42.0601 4.83167 42.0039 5.19185 42.0039C5.50997 42.0039 5.80008 42.0601 6.06206 42.1723C6.32872 42.2801 6.55797 42.4367 6.74974 42.6425C6.94156 42.8485 7.08895 43.1012 7.19185 43.4004ZM2.69362 44.9653V44.832H7.77434C7.8398 44.832 7.88661 44.8135 7.91468 44.7759C7.94275 44.7385 7.95679 44.6683 7.95679 44.5653C7.95679 44.0741 7.88428 43.639 7.73923 43.2601C7.59889 42.8811 7.40474 42.5631 7.15679 42.3057C6.90883 42.0438 6.61644 41.8451 6.27957 41.7092C5.94275 41.5736 5.57781 41.5057 5.18485 41.5057C4.68894 41.5057 4.2445 41.5924 3.85152 41.7653C3.46322 41.9385 3.1334 42.1794 2.86204 42.4881C2.59538 42.7924 2.38954 43.1573 2.2445 43.5829C2.10415 44.0039 2.03397 44.4648 2.03397 44.9653C2.03397 45.5596 2.10883 46.0882 2.25854 46.5513C2.41292 47.0098 2.63046 47.3984 2.91117 47.7161C3.19187 48.0347 3.52871 48.2775 3.92169 48.4462C4.31467 48.6098 4.74974 48.6916 5.22696 48.6916C5.48894 48.6916 5.7486 48.666 6.00588 48.6144C6.26787 48.5632 6.51116 48.4951 6.73571 48.411C6.96497 48.3223 7.17082 48.2171 7.35326 48.0951C7.54042 47.9735 7.69013 47.8427 7.80241 47.7024L7.61992 47.4775C7.58718 47.4308 7.54042 47.4075 7.47957 47.4075C7.43281 47.4075 7.35797 47.4473 7.25502 47.5268C7.15207 47.6018 7.01173 47.6882 6.83395 47.7865C6.66088 47.8802 6.4457 47.9666 6.18837 48.0462C5.93105 48.1211 5.62696 48.1582 5.2761 48.1582C4.88309 48.1582 4.52753 48.0905 4.20941 47.9547C3.89129 47.8194 3.61994 47.6178 3.39538 47.3513C3.17081 47.0802 2.99771 46.7456 2.87608 46.3479C2.75445 45.9502 2.69362 45.4894 2.69362 44.9653ZM17.8995 48.6002L21.9977 38.4531H20.4749C20.3158 38.4531 20.1802 38.4977 20.0679 38.5864C19.9601 38.6754 19.8877 38.7736 19.8504 38.8811L17.4714 45.0706C17.3917 45.2719 17.3193 45.4942 17.2539 45.7371C17.1882 45.9758 17.1276 46.2263 17.0714 46.4882C17.0057 46.2263 16.9356 45.9758 16.8609 45.7371C16.7907 45.4942 16.7158 45.2719 16.6363 45.0706L14.2434 38.8811C14.1917 38.7548 14.1145 38.6521 14.0118 38.5723C13.9087 38.4929 13.7754 38.4531 13.6118 38.4531H12.096L16.1942 48.6002H17.8995ZM24.2456 45.6601C24.5872 45.5946 25.0083 45.5503 25.5087 45.5267V46.7406C25.2609 47.003 25.0057 47.1995 24.7438 47.3303C24.4864 47.4564 24.1802 47.5195 23.8245 47.5195C23.5346 47.5195 23.2982 47.4542 23.1158 47.3234C22.9381 47.1922 22.8491 46.9751 22.8491 46.6706C22.8491 46.5161 22.8935 46.3735 22.9824 46.2427C23.0714 46.1115 23.2188 45.9968 23.4245 45.8985C23.6303 45.8002 23.904 45.7211 24.2456 45.6601ZM24.5263 41.2671C23.3614 41.2671 22.3649 41.646 21.5368 42.4039L21.8456 42.9583C21.8969 43.0425 21.9649 43.1175 22.0491 43.1829C22.1333 43.2438 22.2363 43.2741 22.3579 43.2741C22.4982 43.2741 22.6245 43.2415 22.7368 43.1758C22.8539 43.1104 22.9824 43.038 23.1228 42.9583C23.2631 42.8741 23.4245 42.7994 23.607 42.7337C23.7942 42.6683 24.0281 42.6355 24.3087 42.6355C24.6969 42.6355 24.9942 42.7525 25.2 42.9864C25.4057 43.2157 25.5087 43.5714 25.5087 44.0531V44.4741C24.9614 44.4881 24.4749 44.5302 24.0491 44.6004C23.6233 44.6661 23.2491 44.7525 22.9263 44.8601C22.6083 44.9679 22.339 45.0942 22.1193 45.239C21.8995 45.3841 21.7193 45.5385 21.5789 45.7022C21.4434 45.866 21.3451 46.0388 21.2842 46.2212C21.2233 46.3995 21.1929 46.5792 21.1929 46.762C21.1929 47.0848 21.2443 47.3678 21.3474 47.611C21.4504 47.8542 21.5952 48.058 21.7824 48.2212C21.9697 48.3854 22.1917 48.5092 22.4491 48.5934C22.7065 48.6729 22.9872 48.7127 23.2912 48.7127C23.5486 48.7127 23.7824 48.6894 23.9929 48.6427C24.2083 48.6002 24.4093 48.5371 24.5965 48.453C24.7837 48.3689 24.9636 48.266 25.1368 48.1444C25.31 48.0178 25.4877 47.8729 25.6702 47.7092L25.8245 48.2286C25.8759 48.3785 25.9461 48.4791 26.035 48.5303C26.1241 48.5769 26.2504 48.6002 26.414 48.6002H27.2V44.0531C27.2 43.646 27.139 43.2719 27.0175 42.9302C26.9005 42.5889 26.7276 42.2964 26.4982 42.0531C26.2689 41.8052 25.9882 41.6135 25.6561 41.4776C25.3241 41.3373 24.9474 41.2671 24.5263 41.2671ZM32.0255 44.7408C31.8664 44.7969 31.6791 44.825 31.4641 44.825C31.2536 44.825 31.0664 44.7969 30.9027 44.7408C30.7436 44.6801 30.6102 44.5982 30.5027 44.4952C30.3997 44.3876 30.3203 44.2613 30.2641 44.1162C30.2125 43.9714 30.1869 43.8144 30.1869 43.646C30.1869 43.2906 30.2922 43.01 30.5027 42.8039C30.7177 42.5934 31.0383 42.4881 31.4641 42.4881C31.8897 42.4881 32.208 42.5934 32.4185 42.8039C32.6335 43.01 32.7413 43.2906 32.7413 43.646C32.7413 43.8192 32.7133 43.9784 32.6571 44.1232C32.6055 44.2683 32.526 44.3924 32.4185 44.4952C32.3155 44.5982 32.1844 44.6801 32.0255 44.7408ZM33.2957 48.5792C33.3799 48.6683 33.422 48.7831 33.422 48.9234C33.422 49.0638 33.3869 49.1922 33.3167 49.3092C33.2466 49.4308 33.1343 49.5337 32.9799 49.6178C32.83 49.707 32.6383 49.7751 32.4045 49.8212C32.1704 49.8729 31.8922 49.8985 31.5694 49.8985C31.251 49.8985 30.9822 49.8752 30.7624 49.8286C30.5423 49.7865 30.3624 49.7257 30.222 49.6462C30.0862 49.5666 29.9857 49.4706 29.9203 49.3582C29.8594 49.2507 29.829 49.1337 29.829 49.0075C29.829 48.8155 29.8874 48.6473 30.0045 48.5024C30.126 48.3575 30.2826 48.2308 30.4746 48.1234C30.6944 48.1513 30.919 48.17 31.1483 48.1792C31.3822 48.1888 31.6067 48.2002 31.822 48.2144C32.0418 48.224 32.2476 48.2404 32.4396 48.2638C32.6361 48.2871 32.8067 48.3246 32.9518 48.3758C33.0967 48.4228 33.2115 48.4905 33.2957 48.5792ZM35.1483 42.2916V41.646H33.0782C32.8536 41.5245 32.6055 41.4333 32.3343 41.3723C32.0628 41.307 31.7729 41.2741 31.4641 41.2741C31.0523 41.2741 30.6711 41.328 30.3203 41.4355C29.9739 41.5433 29.6721 41.6999 29.415 41.9057C29.1624 42.107 28.9634 42.3525 28.8185 42.6425C28.6782 42.928 28.608 43.2485 28.608 43.6039C28.608 44.0438 28.7107 44.4275 28.9167 44.7548C29.1273 45.0824 29.415 45.3443 29.7799 45.5407C29.6207 45.6205 29.4826 45.7117 29.3659 45.8144C29.2488 45.9127 29.1506 46.0178 29.0712 46.1303C28.9962 46.2427 28.9378 46.3575 28.8957 46.474C28.8581 46.5865 28.8396 46.6962 28.8396 46.8041C28.8396 47.0706 28.8957 47.2859 29.008 47.4496C29.1203 47.6132 29.2721 47.7444 29.4641 47.8427C29.1085 47.9785 28.8278 48.1609 28.622 48.3899C28.4207 48.6144 28.3203 48.8951 28.3203 49.232C28.3203 49.4802 28.3857 49.7188 28.5167 49.9479C28.6476 50.1769 28.8466 50.3785 29.1133 50.5513C29.3799 50.7291 29.7142 50.8695 30.1167 50.9723C30.519 51.0802 30.9914 51.1337 31.5343 51.1337C32.0862 51.1337 32.5774 51.0615 33.008 50.9161C33.443 50.7758 33.808 50.5888 34.1027 50.3547C34.402 50.1211 34.629 49.8542 34.7834 49.5547C34.9423 49.2558 35.022 48.9467 35.022 48.6286C35.022 48.2871 34.9541 48.0087 34.8185 47.7934C34.6874 47.5735 34.512 47.4002 34.2922 47.274C34.0721 47.1479 33.822 47.0564 33.5413 47.0002C33.2606 46.9399 32.9729 46.8978 32.6782 46.874C32.3834 46.8507 32.0957 46.8366 31.815 46.832C31.5343 46.8228 31.2839 46.8041 31.0641 46.7758C30.8441 46.7479 30.6664 46.7012 30.5308 46.6354C30.3997 46.5655 30.3343 46.4576 30.3343 46.3127C30.3343 46.1444 30.4466 45.9922 30.6711 45.8564C30.7975 45.8802 30.926 45.8985 31.0571 45.9127C31.1879 45.9268 31.3238 45.9337 31.4641 45.9337C31.8616 45.9337 32.2313 45.8802 32.5729 45.7723C32.919 45.6601 33.2185 45.5034 33.4711 45.3022C33.7238 45.1012 33.9203 44.8578 34.0606 44.5723C34.2055 44.2824 34.2782 43.9596 34.2782 43.6039C34.2782 43.3092 34.229 43.038 34.1308 42.7899L34.7764 42.6706C35.0243 42.624 35.1483 42.4977 35.1483 42.2916ZM38.7879 45.6601C39.1293 45.5946 39.5503 45.5503 40.051 45.5267V46.7406C39.8029 47.003 39.5481 47.1995 39.2862 47.3303C39.0287 47.4564 38.7222 47.5195 38.3668 47.5195C38.0766 47.5195 37.8405 47.4542 37.6581 47.3234C37.4801 47.1922 37.3914 46.9751 37.3914 46.6706C37.3914 46.5161 37.4358 46.3735 37.5247 46.2427C37.6135 46.1115 37.7608 45.9968 37.9668 45.8985C38.1726 45.8002 38.4463 45.7211 38.7879 45.6601ZM39.0686 41.2671C37.9037 41.2671 36.9072 41.646 36.0791 42.4039L36.3879 42.9583C36.4393 43.0425 36.5072 43.1175 36.5914 43.1829C36.6756 43.2438 36.7784 43.2741 36.9002 43.2741C37.0405 43.2741 37.1668 43.2415 37.2791 43.1758C37.3959 43.1104 37.5247 43.038 37.6651 42.9583C37.8055 42.8741 37.9668 42.7994 38.1493 42.7337C38.3363 42.6683 38.5704 42.6355 38.851 42.6355C39.2393 42.6355 39.5363 42.7525 39.7423 42.9864C39.9481 43.2157 40.051 43.5714 40.051 44.0531V44.4741C39.5037 44.4881 39.0169 44.5302 38.5914 44.6004C38.1656 44.6661 37.7914 44.7525 37.4686 44.8601C37.1503 44.9679 36.8814 45.0942 36.6616 45.239C36.4415 45.3841 36.2616 45.5385 36.1213 45.7022C35.9854 45.866 35.8871 46.0388 35.8265 46.2212C35.7656 46.3995 35.7353 46.5792 35.7353 46.762C35.7353 47.0848 35.7866 47.3678 35.8897 47.611C35.9924 47.8542 36.1375 48.058 36.3247 48.2212C36.5117 48.3854 36.734 48.5092 36.9914 48.5934C37.2485 48.6729 37.5292 48.7127 37.8335 48.7127C38.0906 48.7127 38.3247 48.6894 38.5353 48.6427C38.7503 48.6002 38.9516 48.5371 39.1388 48.453C39.3257 48.3689 39.506 48.266 39.6791 48.1444C39.8521 48.0178 40.03 47.8729 40.2125 47.7092L40.3668 48.2286C40.4182 48.3785 40.4884 48.4791 40.5774 48.5303C40.6661 48.5769 40.7924 48.6002 40.9563 48.6002H41.7423V44.0531C41.7423 43.646 41.6814 43.2719 41.5598 42.9302C41.4428 42.5889 41.2696 42.2964 41.0405 42.0531C40.8112 41.8052 40.5305 41.6135 40.1984 41.4776C39.8661 41.3373 39.4897 41.2671 39.0686 41.2671ZM47.6201 42.9653C47.6718 42.9327 47.7211 42.8789 47.7678 42.8039L48.1604 42.1794C47.8894 41.9127 47.5502 41.6977 47.1428 41.5337C46.736 41.3701 46.2848 41.2881 45.7888 41.2881C45.3443 41.2881 44.9513 41.3491 44.6097 41.4706C44.2728 41.5876 43.9899 41.7468 43.7605 41.9478C43.536 42.1443 43.3653 42.3759 43.2483 42.6425C43.1315 42.9092 43.0728 43.1899 43.0728 43.4846C43.0728 43.803 43.122 44.0741 43.2202 44.2986C43.3232 44.5232 43.4565 44.7127 43.6202 44.8671C43.7886 45.0215 43.9781 45.1503 44.1886 45.2531C44.4039 45.3513 44.6215 45.438 44.8412 45.5127C45.0658 45.5876 45.2834 45.6578 45.4939 45.7234C45.7092 45.7842 45.8985 45.8542 46.0622 45.9337C46.2308 46.0132 46.3639 46.107 46.4622 46.2144C46.5655 46.3223 46.6167 46.4599 46.6167 46.6286C46.6167 46.7406 46.5934 46.8507 46.5467 46.9582C46.5042 47.0615 46.4343 47.1524 46.336 47.232C46.2427 47.3115 46.1211 47.3769 45.9712 47.4286C45.8263 47.4752 45.6508 47.4985 45.4447 47.4985C45.1828 47.4985 44.9653 47.4683 44.7921 47.4075C44.6237 47.3467 44.4763 47.2809 44.35 47.211C44.2237 47.1406 44.1114 47.0752 44.0131 47.0144C43.9197 46.9536 43.8192 46.9234 43.7114 46.9234C43.6039 46.9234 43.5149 46.9444 43.4447 46.9865C43.3746 47.0286 43.314 47.0894 43.2623 47.1689L42.8623 47.8286C43.0026 47.9547 43.1641 48.0718 43.3465 48.1792C43.5337 48.2871 43.735 48.3808 43.95 48.4599C44.1701 48.5399 44.3969 48.6002 44.6307 48.6427C44.8693 48.6894 45.1127 48.7127 45.3605 48.7127C45.8286 48.7127 46.2404 48.6542 46.5956 48.5371C46.9559 48.4155 47.2576 48.2496 47.5008 48.0388C47.7444 47.824 47.9268 47.5712 48.0484 47.2809C48.1746 46.9865 48.2377 46.666 48.2377 46.3195C48.2377 46.0297 48.1865 45.7819 48.0832 45.5759C47.9849 45.3701 47.8519 45.1946 47.6832 45.0495C47.5195 44.8999 47.3326 44.7784 47.1218 44.6846C46.9115 44.5864 46.6962 44.4999 46.4763 44.425C46.2615 44.3503 46.0484 44.2824 45.8377 44.2215C45.6272 44.1561 45.4377 44.0836 45.2693 44.0039C45.1057 43.9245 44.9723 43.8333 44.8693 43.7302C44.771 43.6227 44.722 43.4916 44.722 43.3373C44.722 43.1034 44.8179 42.914 45.0097 42.7689C45.2062 42.624 45.4754 42.5513 45.8167 42.5513C46.0366 42.5513 46.2263 42.5749 46.3849 42.6215C46.549 42.6683 46.6939 42.7222 46.8201 42.7829C46.9467 42.839 47.0564 42.8906 47.1502 42.9373C47.2484 42.9841 47.3394 43.0074 47.4235 43.0074C47.5035 43.0074 47.5689 42.9934 47.6201 42.9653Z" fill="white"/>
</g>
</g>
<mask id="mask2_832_11592" style="mask-type:luminance" maskUnits="userSpaceOnUse" x="39" y="6" width="106" height="23">
<path d="M144.457 6.7168H39.3143V28.6597H144.457V6.7168Z" fill="white"/>
</mask>
<g mask="url(#mask2_832_11592)">
<path fill-rule="evenodd" clip-rule="evenodd" d="M75.0505 -38.0698C77.2132 -45.5857 82.8644 -50.6189 90.3296 -51.6776C93.0322 -52.0607 96.5659 -51.508 99.3865 -50.26C102.734 -48.7802 106.694 -45.503 109.471 -41.9158C111.727 -39.0017 111.74 -38.8647 109.572 -40.9113C104.139 -46.0369 96.9865 -47.9811 90.6574 -46.0534C86.635 -44.8282 83.5776 -42.3405 81.9908 -39.002C81.1625 -37.2582 81.0633 -36.82 80.9792 -34.5302C80.9019 -32.4255 80.9801 -31.7119 81.4386 -30.3552C82.5175 -27.1599 84.4713 -24.9421 87.4276 -23.5576C88.7365 -22.9448 89.243 -22.8526 91.3024 -22.8526H93.6713L92.8251 -22.1423C92.3602 -21.7517 91.2393 -21.0662 90.3346 -20.6192C88.7945 -19.8579 88.5207 -19.8068 86.0192 -19.8144C82.6789 -19.8243 81.0834 -20.3886 78.9906 -22.2994C77.1712 -23.9608 76.0535 -25.7025 75.1872 -28.2274C74.2468 -30.967 74.1902 -35.0786 75.0505 -38.0698ZM71.4647 -40.1799C72.7195 -42.0821 76.3026 -45.801 78.3945 -47.3727C79.3038 -48.0557 80.0864 -48.6157 80.133 -48.617C80.1796 -48.6184 79.5986 -47.9053 78.842 -47.033C76.3223 -44.1272 74.8169 -41.4931 73.7961 -38.2023C73.3262 -36.687 73.2082 -35.7221 73.2068 -33.3879C73.2046 -28.6376 74.4091 -25.2925 77.195 -22.3144C79.6654 -19.6733 82.4265 -18.4101 85.7294 -18.4101C90.3369 -18.4101 94.2976 -20.7918 96.2354 -24.7279C96.9838 -26.2477 97.0569 -26.607 97.0569 -28.7704V-31.1448L97.7833 -30.2989C98.1828 -29.8335 98.8681 -28.7105 99.3065 -27.8029C100.044 -26.2752 100.103 -25.9553 100.103 -23.4873C100.103 -21.0259 100.042 -20.693 99.3065 -19.1404C97.4345 -15.1893 93.8062 -12.7947 88.5856 -12.0646C84.832 -11.5396 80.2244 -12.6494 76.4864 -14.9794C71.3824 -18.1608 68.2075 -23.7795 68.165 -29.7069C68.138 -33.4935 69.1291 -36.6388 71.4647 -40.1799ZM82.8914 -38.277C84.672 -42.0351 88.3401 -44.5837 93.0071 -45.3046C96.1819 -45.7946 100.162 -45.1226 103.423 -43.5461C107.282 -41.6802 110.144 -38.9629 111.851 -35.5457C114.861 -29.5157 114.515 -23.3698 110.848 -17.7229C109.264 -15.2835 105.354 -11.3827 102.642 -9.5379L100.611 -8.15614L102.768 -10.4444C108.205 -16.2099 110.087 -23.4459 107.845 -29.9625C105.246 -37.5164 97.7088 -41.01 90.9294 -37.803C87.1474 -36.0138 84.3374 -31.4034 84.869 -27.859L85.0482 -26.6638L84.5051 -27.1548C84.2066 -27.4249 83.5387 -28.5036 83.0208 -29.5517C82.123 -31.3681 82.0791 -31.5771 82.0791 -34.0093C82.0791 -36.3537 82.1449 -36.7005 82.8914 -38.277ZM89.7618 -35.4789C90.4553 -36.2207 92.3223 -37.1871 93.8834 -37.6121C95.349 -38.0109 97.0606 -38.032 98.7579 -37.672C102.889 -36.7954 106.234 -33.25 107.459 -28.4477C108.01 -26.2935 107.958 -22.4848 107.347 -20.0947C106.04 -14.9865 102.23 -10.1027 97.9451 -8.04519C95.3723 -6.80967 93.4144 -6.26256 90.826 -6.05657C87.3842 -5.78183 83.0519 -7.04725 79.7499 -9.29113C77.9003 -10.548 74.4503 -13.9736 72.7671 -16.2246C70.6112 -19.1082 70.5399 -19.3958 72.4457 -17.5177C74.4434 -15.5493 76.4855 -14.1191 78.9842 -12.9394C81.6969 -11.6581 83.7015 -11.2144 86.7753 -11.2144C91.5044 -11.2144 94.8942 -12.5175 97.8386 -15.4673C99.9118 -17.5444 100.837 -19.2785 101.294 -21.9421C102.082 -26.5364 99.568 -31.902 95.7042 -33.8733C94.0279 -34.7285 91.6951 -35.2367 90.3579 -35.038L89.1872 -34.8638L89.7618 -35.4789ZM49.0057 23.6947L49.0286 22.7233H40.4914V15.9805H47.5771V15.0319H40.4914V8.49474H49.0057V7.52331H39.3143V23.6947H49.0057ZM53.1026 23.6947V7.06617H52.0055V23.6947H53.1026ZM58.1586 23.6947V12.3233H57.0729V23.6947H58.1586ZM58.5358 8.79188C58.597 8.67028 58.6272 8.54045 58.6272 8.40331C58.6272 8.26617 58.597 8.1368 58.5358 8.01474C58.4827 7.88537 58.41 7.77474 58.3186 7.68332C58.2272 7.59188 58.1207 7.51965 57.9986 7.46617C57.877 7.41314 57.7472 7.38617 57.61 7.38617C57.4729 7.38617 57.3435 7.41314 57.2215 7.46617C57.0999 7.51965 56.9929 7.59188 56.9015 7.68332C56.81 7.77474 56.7378 7.88537 56.6843 8.01474C56.6313 8.1368 56.6043 8.26617 56.6043 8.40331C56.6043 8.54045 56.6313 8.67028 56.6843 8.79188C56.7378 8.90617 56.81 9.00903 56.9015 9.10045C56.9929 9.19188 57.0999 9.26457 57.2215 9.3176C57.3435 9.37108 57.4729 9.3976 57.61 9.3976C57.7472 9.3976 57.877 9.37108 57.9986 9.3176C58.1207 9.26457 58.2272 9.19188 58.3186 9.10045C58.41 9.00903 58.4827 8.90617 58.5358 8.79188ZM63.3394 23.2376C63.7737 23.6646 64.3758 23.8776 65.1451 23.8776C65.6251 23.8776 66.0859 23.7825 66.528 23.5919C66.9774 23.3939 67.3472 23.1347 67.6366 22.8147L67.3394 22.3347C67.2786 22.2589 67.2174 22.2205 67.1566 22.2205C67.1031 22.2205 67.0308 22.2625 66.9394 22.3462C66.848 22.4225 66.73 22.5103 66.5851 22.609C66.4402 22.7005 66.2688 22.7882 66.0708 22.8719C65.8729 22.9482 65.6366 22.9862 65.3623 22.9862C65.1415 22.9862 64.9358 22.9519 64.7451 22.8833C64.5545 22.8147 64.3872 22.7082 64.2423 22.5633C64.1051 22.4188 63.9945 22.236 63.9108 22.0147C63.8345 21.7862 63.7966 21.516 63.7966 21.2033V13.489H67.3851V12.6776H63.7966V8.33474H63.2823C63.1986 8.33474 63.1337 8.36171 63.088 8.41474C63.0423 8.46822 63.0116 8.52903 62.9966 8.5976L62.7223 12.6662L60.7794 12.8033V13.2262C60.7794 13.3103 60.8059 13.3747 60.8594 13.4204C60.9129 13.4662 60.9815 13.489 61.0651 13.489H62.6994V21.2605C62.6994 22.1519 62.9129 22.8111 63.3394 23.2376ZM77.541 15.2262C77.7161 15.7062 77.8039 16.2511 77.8039 16.8605H70.2724C70.341 16.2662 70.4782 15.729 70.6839 15.249C70.8896 14.769 71.1602 14.3576 71.4953 14.0147C71.8382 13.6719 72.2418 13.409 72.7067 13.2262C73.1716 13.0433 73.6974 12.9519 74.2839 12.9519C74.8018 12.9519 75.2745 13.0433 75.701 13.2262C76.1353 13.4017 76.5088 13.6568 76.821 13.9919C77.1332 14.3274 77.3732 14.7389 77.541 15.2262ZM70.2153 17.7747V17.5576H78.4896C78.5961 17.5576 78.6724 17.5274 78.7182 17.4662C78.7639 17.4054 78.7867 17.2911 78.7867 17.1233C78.7867 16.3233 78.6688 15.6147 78.4324 14.9976C78.2039 14.3805 77.8875 13.8625 77.4839 13.4433C77.0802 13.0168 76.6039 12.6931 76.0553 12.4719C75.5067 12.2511 74.9124 12.1405 74.2724 12.1405C73.4647 12.1405 72.741 12.2817 72.101 12.5633C71.4688 12.8454 70.9316 13.2376 70.4896 13.7405C70.0553 14.236 69.7202 14.8303 69.4839 15.5233C69.2553 16.209 69.141 16.9597 69.141 17.7747C69.141 18.7425 69.2631 19.6033 69.5067 20.3576C69.7582 21.1046 70.1124 21.7368 70.5696 22.2547C71.0267 22.7731 71.5753 23.169 72.2153 23.4433C72.8553 23.7103 73.5639 23.8433 74.341 23.8433C74.7675 23.8433 75.1904 23.8017 75.6096 23.7176C76.0361 23.6339 76.4324 23.5233 76.7982 23.3862C77.1716 23.2417 77.5067 23.0703 77.8039 22.8719C78.1088 22.6739 78.3524 22.4605 78.5353 22.2319L78.2382 21.8662C78.1847 21.7903 78.1088 21.7519 78.0096 21.7519C77.9332 21.7519 77.8116 21.8168 77.6439 21.9462C77.4761 22.0682 77.2475 22.209 76.9582 22.369C76.6761 22.5217 76.3259 22.6625 75.9067 22.7919C75.4875 22.9139 74.9924 22.9747 74.421 22.9747C73.781 22.9747 73.2018 22.8646 72.6839 22.6433C72.1659 22.4225 71.7239 22.0947 71.3582 21.6605C70.9924 21.2189 70.7104 20.6739 70.5124 20.0262C70.3145 19.3789 70.2153 18.6282 70.2153 17.7747ZM94.9792 23.6947L101.653 7.16903H99.1735C98.9143 7.16903 98.6935 7.24171 98.5106 7.38617C98.3351 7.53108 98.2171 7.69108 98.1563 7.86617L94.2821 17.9462C94.1522 18.2739 94.0343 18.636 93.9278 19.0319C93.8208 19.4205 93.722 19.8282 93.6306 20.2547C93.5237 19.8282 93.4094 19.4205 93.2878 19.0319C93.1735 18.636 93.0514 18.2739 92.922 17.9462L89.0249 7.86617C88.9408 7.66045 88.8151 7.49314 88.6478 7.36331C88.48 7.23394 88.2629 7.16903 87.9963 7.16903H85.5278L92.202 23.6947H94.9792ZM105.314 18.9062C105.871 18.7997 106.556 18.7274 107.371 18.689V20.6662C106.968 21.0931 106.552 21.4131 106.126 21.6262C105.707 21.8319 105.208 21.9347 104.629 21.9347C104.156 21.9347 103.771 21.8282 103.474 21.6147C103.185 21.4017 103.04 21.0474 103.04 20.5519C103.04 20.3005 103.112 20.0682 103.257 19.8547C103.402 19.6417 103.642 19.4547 103.977 19.2947C104.312 19.1347 104.758 19.0054 105.314 18.9062ZM105.771 11.7519C103.874 11.7519 102.251 12.369 100.903 13.6033L101.406 14.5062C101.489 14.6433 101.6 14.7654 101.737 14.8719C101.874 14.9711 102.042 15.0205 102.24 15.0205C102.469 15.0205 102.674 14.9674 102.857 14.8605C103.048 14.7539 103.257 14.636 103.486 14.5062C103.714 14.369 103.977 14.2474 104.274 14.1405C104.579 14.0339 104.96 13.9805 105.417 13.9805C106.049 13.9805 106.533 14.1711 106.869 14.5519C107.204 14.9254 107.371 15.5046 107.371 16.289V16.9747C106.48 16.9976 105.688 17.0662 104.994 17.1805C104.301 17.2874 103.691 17.4282 103.166 17.6033C102.648 17.7789 102.209 17.9846 101.851 18.2205C101.493 18.4568 101.2 18.7082 100.971 18.9747C100.751 19.2417 100.591 19.5233 100.491 19.8204C100.392 20.1103 100.343 20.4033 100.343 20.7005C100.343 21.2262 100.427 21.6874 100.594 22.0833C100.762 22.4797 100.998 22.8111 101.303 23.0776C101.608 23.3446 101.969 23.5462 102.389 23.6833C102.808 23.8131 103.265 23.8776 103.76 23.8776C104.179 23.8776 104.56 23.8397 104.903 23.7633C105.253 23.6947 105.581 23.5919 105.886 23.4547C106.191 23.3176 106.484 23.1503 106.766 22.9519C107.048 22.7462 107.337 22.5103 107.634 22.2433L107.886 23.089C107.969 23.3331 108.084 23.4968 108.229 23.5805C108.373 23.6568 108.579 23.6947 108.846 23.6947H110.126V16.289C110.126 15.6262 110.027 15.0168 109.829 14.4605C109.638 13.9046 109.356 13.4282 108.983 13.0319C108.609 12.6282 108.152 12.316 107.611 12.0947C107.071 11.8662 106.457 11.7519 105.771 11.7519ZM117.984 17.409C117.725 17.5005 117.42 17.5462 117.07 17.5462C116.727 17.5462 116.422 17.5005 116.156 17.409C115.897 17.3103 115.68 17.1768 115.504 17.009C115.337 16.8339 115.207 16.6282 115.116 16.3919C115.032 16.156 114.99 15.9005 114.99 15.6262C114.99 15.0474 115.162 14.5903 115.504 14.2547C115.855 13.9119 116.377 13.7405 117.07 13.7405C117.763 13.7405 118.282 13.9119 118.624 14.2547C118.975 14.5903 119.15 15.0474 119.15 15.6262C119.15 15.9082 119.104 16.1674 119.013 16.4033C118.929 16.6397 118.8 16.8417 118.624 17.009C118.457 17.1768 118.243 17.3103 117.984 17.409ZM120.053 23.6605C120.19 23.8054 120.259 23.9919 120.259 24.2205C120.259 24.449 120.202 24.6589 120.087 24.849C119.973 25.0474 119.79 25.2147 119.539 25.3519C119.295 25.4968 118.982 25.6074 118.602 25.6833C118.22 25.7674 117.767 25.809 117.242 25.809C116.723 25.809 116.285 25.7711 115.927 25.6947C115.569 25.6262 115.276 25.5274 115.047 25.3976C114.826 25.2682 114.662 25.1119 114.556 24.929C114.457 24.7539 114.407 24.5633 114.407 24.3576C114.407 24.0454 114.502 23.7711 114.693 23.5347C114.891 23.2989 115.146 23.0931 115.459 22.9176C115.817 22.9633 116.182 22.9939 116.556 23.009C116.937 23.0246 117.302 23.0433 117.653 23.0662C118.011 23.0817 118.346 23.1082 118.659 23.1462C118.979 23.1846 119.257 23.2454 119.493 23.329C119.729 23.4054 119.916 23.516 120.053 23.6605ZM123.07 13.4204V12.369H119.699C119.333 12.1711 118.929 12.0225 118.487 11.9233C118.045 11.8168 117.573 11.7633 117.07 11.7633C116.4 11.7633 115.779 11.8511 115.207 12.0262C114.643 12.2017 114.152 12.4568 113.733 12.7919C113.322 13.1197 112.997 13.5197 112.762 13.9919C112.533 14.4568 112.419 14.9789 112.419 15.5576C112.419 16.2739 112.586 16.8989 112.922 17.4319C113.264 17.9654 113.733 18.3919 114.327 18.7119C114.068 18.8417 113.843 18.9903 113.653 19.1576C113.462 19.3176 113.302 19.489 113.173 19.6719C113.051 19.8547 112.956 20.0417 112.887 20.2319C112.826 20.4147 112.796 20.5939 112.796 20.769C112.796 21.2033 112.887 21.5539 113.07 21.8204C113.253 22.0874 113.5 22.3005 113.813 22.4605C113.234 22.6817 112.777 22.9789 112.442 23.3519C112.114 23.7176 111.95 24.1747 111.95 24.7233C111.95 25.1274 112.057 25.516 112.27 25.889C112.483 26.2625 112.807 26.5903 113.242 26.8719C113.676 27.1617 114.22 27.3903 114.876 27.5576C115.531 27.7331 116.3 27.8204 117.184 27.8204C118.083 27.8204 118.883 27.7025 119.584 27.4662C120.293 27.2376 120.887 26.9331 121.367 26.5519C121.855 26.1711 122.224 25.7368 122.476 25.249C122.735 24.7617 122.864 24.2589 122.864 23.7405C122.864 23.1846 122.754 22.7311 122.533 22.3805C122.32 22.0225 122.034 21.7404 121.676 21.5347C121.317 21.329 120.91 21.1805 120.453 21.089C119.996 20.9903 119.527 20.9217 119.047 20.8833C118.567 20.8454 118.099 20.8225 117.642 20.8147C117.184 20.7997 116.777 20.769 116.419 20.7233C116.06 20.6776 115.771 20.6017 115.55 20.4947C115.337 20.3805 115.23 20.2054 115.23 19.969C115.23 19.6947 115.413 19.4474 115.779 19.2262C115.984 19.2646 116.194 19.2947 116.407 19.3176C116.62 19.3405 116.842 19.3519 117.07 19.3519C117.717 19.3519 118.32 19.2646 118.876 19.089C119.44 18.9062 119.927 18.6511 120.339 18.3233C120.75 17.996 121.07 17.5996 121.299 17.1347C121.535 16.6625 121.653 16.1368 121.653 15.5576C121.653 15.0776 121.573 14.636 121.413 14.2319L122.464 14.0376C122.868 13.9617 123.07 13.756 123.07 13.4204ZM128.997 18.9062C129.553 18.7997 130.239 18.7274 131.055 18.689V20.6662C130.651 21.0931 130.235 21.4131 129.809 21.6262C129.39 21.8319 128.891 21.9347 128.312 21.9347C127.839 21.9347 127.455 21.8282 127.157 21.6147C126.868 21.4017 126.723 21.0474 126.723 20.5519C126.723 20.3005 126.795 20.0682 126.94 19.8547C127.085 19.6417 127.325 19.4547 127.66 19.2947C127.995 19.1347 128.441 19.0054 128.997 18.9062ZM129.455 11.7519C127.557 11.7519 125.935 12.369 124.586 13.6033L125.089 14.5062C125.173 14.6433 125.283 14.7654 125.42 14.8719C125.557 14.9711 125.725 15.0205 125.923 15.0205C126.152 15.0205 126.357 14.9674 126.54 14.8605C126.731 14.7539 126.94 14.636 127.169 14.5062C127.397 14.369 127.66 14.2474 127.957 14.1405C128.262 14.0339 128.643 13.9805 129.1 13.9805C129.733 13.9805 130.216 14.1711 130.552 14.5519C130.887 14.9254 131.055 15.5046 131.055 16.289V16.9747C130.163 16.9976 129.371 17.0662 128.677 17.1805C127.984 17.2874 127.375 17.4282 126.849 17.6033C126.331 17.7789 125.893 17.9846 125.535 18.2205C125.176 18.4568 124.883 18.7082 124.655 18.9747C124.433 19.2417 124.273 19.5233 124.175 19.8204C124.075 20.1103 124.026 20.4033 124.026 20.7005C124.026 21.2262 124.11 21.6874 124.277 22.0833C124.445 22.4797 124.681 22.8111 124.986 23.0776C125.291 23.3446 125.653 23.5462 126.072 23.6833C126.491 23.8131 126.948 23.8776 127.443 23.8776C127.862 23.8776 128.243 23.8397 128.586 23.7633C128.936 23.6947 129.264 23.5919 129.569 23.4547C129.873 23.3176 130.167 23.1503 130.449 22.9519C130.731 22.7462 131.02 22.5103 131.317 22.2433L131.569 23.089C131.653 23.3331 131.767 23.4968 131.912 23.5805C132.056 23.6568 132.262 23.6947 132.529 23.6947H133.809V16.289C133.809 15.6262 133.71 15.0168 133.512 14.4605C133.321 13.9046 133.039 13.4282 132.666 13.0319C132.293 12.6282 131.835 12.316 131.295 12.0947C130.753 11.8662 130.14 11.7519 129.455 11.7519ZM143.381 14.5176C143.466 14.4646 143.546 14.3768 143.621 14.2547L144.261 13.2376C143.82 12.8033 143.267 12.4531 142.604 12.1862C141.941 11.9197 141.206 11.7862 140.399 11.7862C139.675 11.7862 139.035 11.8854 138.479 12.0833C137.93 12.2739 137.469 12.5331 137.096 12.8605C136.73 13.1805 136.452 13.5576 136.261 13.9919C136.071 14.4262 135.976 14.8833 135.976 15.3633C135.976 15.8817 136.056 16.3233 136.216 16.689C136.384 17.0547 136.601 17.3633 136.867 17.6147C137.141 17.8662 137.45 18.076 137.793 18.2433C138.144 18.4033 138.498 18.5446 138.856 18.6662C139.221 18.7882 139.576 18.9025 139.919 19.009C140.269 19.1082 140.578 19.2225 140.844 19.3519C141.119 19.4817 141.336 19.6339 141.496 19.809C141.664 19.9846 141.747 20.209 141.747 20.4833C141.747 20.6662 141.709 20.8454 141.633 21.0204C141.564 21.1882 141.45 21.3368 141.29 21.4662C141.138 21.596 140.94 21.7025 140.696 21.7862C140.46 21.8625 140.174 21.9005 139.839 21.9005C139.412 21.9005 139.058 21.8511 138.776 21.7519C138.501 21.6531 138.261 21.5462 138.056 21.4319C137.85 21.3176 137.667 21.2111 137.507 21.1119C137.355 21.0131 137.191 20.9633 137.016 20.9633C136.841 20.9633 136.696 20.9976 136.581 21.0662C136.467 21.1347 136.368 21.2339 136.284 21.3633L135.633 22.4376C135.861 22.6433 136.124 22.8339 136.421 23.009C136.726 23.1846 137.054 23.3368 137.404 23.4662C137.763 23.596 138.132 23.6947 138.513 23.7633C138.901 23.8397 139.298 23.8776 139.701 23.8776C140.464 23.8776 141.134 23.7825 141.713 23.5919C142.3 23.3939 142.791 23.1233 143.187 22.7804C143.584 22.4303 143.881 22.0189 144.079 21.5462C144.284 21.0662 144.387 20.5446 144.387 19.9805C144.387 19.5082 144.304 19.1046 144.136 18.769C143.976 18.4339 143.759 18.1482 143.484 17.9119C143.218 17.6682 142.913 17.4703 142.57 17.3176C142.227 17.1576 141.877 17.0168 141.519 16.8947C141.168 16.7731 140.821 16.6625 140.479 16.5633C140.136 16.4568 139.827 16.3389 139.553 16.209C139.286 16.0797 139.069 15.9311 138.901 15.7633C138.741 15.5882 138.661 15.3747 138.661 15.1233C138.661 14.7425 138.818 14.4339 139.13 14.1976C139.45 13.9617 139.888 13.8433 140.444 13.8433C140.803 13.8433 141.111 13.8817 141.37 13.9576C141.637 14.0339 141.873 14.1217 142.079 14.2205C142.284 14.3119 142.464 14.396 142.616 14.4719C142.776 14.5482 142.924 14.5862 143.061 14.5862C143.191 14.5862 143.298 14.5633 143.381 14.5176Z" fill="white"/>
</g>
</g>
<defs>
<clipPath id="clip0_832_11592">
<rect width="144.457" height="32" fill="white"/>
</clipPath>
</defs>
</svg>
