<svg width="230" height="175" viewBox="0 0 230 175" fill="none" xmlns="http://www.w3.org/2000/svg">
<path fill-rule="evenodd" clip-rule="evenodd" d="M78.1731 30.529C82.9039 14.0882 95.2658 3.07846 111.596 0.762215C117.508 -0.0763189 125.238 1.13317 131.408 3.86257C138.73 7.10009 147.393 14.2687 153.467 22.1159C158.402 28.4905 158.432 28.7903 153.688 24.3133C141.803 13.1009 126.158 8.84768 112.313 13.0648C103.514 15.7453 96.8263 21.1869 93.3555 28.4899C91.543 32.3044 91.3264 33.2629 91.142 38.2719C90.9727 42.876 91.1443 44.437 92.1466 47.4047C94.5067 54.3945 98.781 59.2458 105.248 62.2745C108.111 63.615 109.219 63.8166 113.724 63.8166H118.906L117.055 65.3704C116.038 66.225 113.586 67.7244 111.607 68.7023C108.238 70.3677 107.639 70.4794 102.167 70.4627C94.8599 70.441 91.3697 69.2066 86.7917 65.0267C82.8122 61.3926 80.3671 57.5826 78.4718 52.0594C76.4149 46.0664 76.2905 37.0724 78.1731 30.529ZM70.3292 25.9132C73.0741 21.7522 80.9119 13.6173 85.4883 10.1793C87.4775 8.68497 89.189 7.45993 89.2912 7.45716C89.3933 7.45382 88.1222 9.01372 86.4668 10.9224C80.9547 17.2786 77.6622 23.0406 75.4287 30.2392C74.4008 33.5539 74.1426 35.6647 74.1398 40.7708C74.1348 51.162 76.7698 58.4794 82.8639 64.9939C88.2682 70.7715 94.3085 73.5347 101.533 73.5347C111.612 73.5347 120.276 68.3247 124.515 59.7145C126.152 56.3898 126.312 55.604 126.312 50.8715V45.6776L127.901 47.528C128.775 48.5459 130.274 51.0026 131.233 52.9879C132.846 56.3298 132.975 57.0295 132.975 62.4283C132.975 67.8127 132.842 68.5407 131.233 71.9371C127.138 80.5801 119.201 85.8184 107.781 87.4155C99.5696 88.5639 89.4911 86.1361 81.314 81.0393C70.1487 74.0801 63.2039 61.7891 63.1111 48.823C63.0523 40.5398 65.2197 33.6594 70.3292 25.9132ZM95.3253 30.0759C99.2197 21.8549 107.244 16.2801 117.453 14.7035C124.398 13.6312 133.104 15.1006 140.238 18.5497C148.68 22.6313 154.941 28.5754 158.673 36.0506C165.258 49.2411 164.502 62.6854 156.481 75.038C153.016 80.374 144.461 88.9071 138.529 92.9426L134.086 95.9652L138.806 90.9596C150.699 78.3477 154.816 62.5188 149.912 48.2638C144.226 31.7396 127.738 24.0973 112.908 31.1127C104.635 35.0266 98.4878 45.1118 99.6507 52.8651L100.043 55.4796L98.8554 54.4056C98.2024 53.8147 96.7413 51.4552 95.6079 49.1623C93.6443 45.189 93.5477 44.7319 93.5477 39.4114C93.5477 34.283 93.6921 33.5244 95.3253 30.0759ZM110.354 36.1967C111.871 34.574 115.955 32.4599 119.37 31.5303C122.576 30.6579 126.32 30.6118 130.033 31.3992C139.07 33.3168 146.386 41.0724 149.067 51.5774C150.271 56.2898 150.159 64.6213 148.821 69.8496C145.963 81.0238 137.628 91.707 128.255 96.2079C122.627 98.9106 118.344 100.107 112.682 100.558C105.153 101.159 95.6762 98.3909 88.4526 93.4824C84.4071 90.733 76.8603 83.2395 73.1785 78.3155C68.4616 72.0076 68.3056 71.3784 72.4749 75.4867C76.8448 79.7926 81.3123 82.9213 86.7778 85.5019C92.7119 88.3046 97.0967 89.2753 103.821 89.2753C114.166 89.2753 121.581 86.4248 128.022 79.972C132.557 75.4284 134.582 71.635 135.581 65.8085C137.304 55.7584 131.805 44.0211 123.353 39.709C119.686 37.8382 114.583 36.7264 111.658 37.1612L109.097 37.5422L110.354 36.1967ZM21.2 165.639L21.25 163.514H2.575V148.764H18.075V146.689H2.575V132.389H21.2V130.264H0V165.639H21.2ZM30.1621 165.639V129.264H27.7621V165.639H30.1621ZM41.2223 165.639V140.764H38.8473V165.639H41.2223ZM42.0473 133.039C42.1806 132.773 42.2473 132.489 42.2473 132.189C42.2473 131.889 42.1806 131.606 42.0473 131.339C41.9306 131.056 41.7723 130.814 41.5723 130.614C41.3723 130.414 41.1389 130.256 40.8723 130.139C40.6056 130.023 40.3223 129.964 40.0223 129.964C39.7223 129.964 39.4389 130.023 39.1723 130.139C38.9056 130.256 38.6723 130.414 38.4723 130.614C38.2723 130.814 38.1139 131.056 37.9973 131.339C37.8806 131.606 37.8223 131.889 37.8223 132.189C37.8223 132.489 37.8806 132.773 37.9973 133.039C38.1139 133.289 38.2723 133.514 38.4723 133.714C38.6723 133.914 38.9056 134.073 39.1723 134.189C39.4389 134.306 39.7223 134.364 40.0223 134.364C40.3223 134.364 40.6056 134.306 40.8723 134.189C41.1389 134.073 41.3723 133.914 41.5723 133.714C41.7723 133.514 41.9306 133.289 42.0473 133.039ZM52.5551 164.639C53.5051 165.573 54.8217 166.039 56.5051 166.039C57.5551 166.039 58.5634 165.831 59.5301 165.414C60.5134 164.981 61.3217 164.414 61.9551 163.714L61.3051 162.664C61.1717 162.498 61.0384 162.414 60.9051 162.414C60.7884 162.414 60.6301 162.506 60.4301 162.689C60.2301 162.856 59.9717 163.048 59.6551 163.264C59.3384 163.464 58.9634 163.656 58.5301 163.839C58.0967 164.006 57.5801 164.089 56.9801 164.089C56.4967 164.089 56.0467 164.014 55.6301 163.864C55.2134 163.714 54.8467 163.481 54.5301 163.164C54.2301 162.848 53.9884 162.448 53.8051 161.964C53.6384 161.464 53.5551 160.873 53.5551 160.189V143.314H61.4051V141.539H53.5551V132.039H52.4301C52.2467 132.039 52.1051 132.098 52.0051 132.214C51.9051 132.331 51.8384 132.464 51.8051 132.614L51.2051 141.514L46.9551 141.814V142.739C46.9551 142.923 47.0134 143.064 47.1301 143.164C47.2467 143.264 47.3967 143.314 47.5801 143.314H51.1551V160.314C51.1551 162.264 51.6217 163.706 52.5551 164.639ZM83.6211 147.114C84.0044 148.164 84.1961 149.356 84.1961 150.689H67.7211C67.8711 149.389 68.1711 148.214 68.6211 147.164C69.0711 146.114 69.6628 145.214 70.3961 144.464C71.1461 143.714 72.0294 143.139 73.0461 142.739C74.0628 142.339 75.2128 142.139 76.4961 142.139C77.6294 142.139 78.6628 142.339 79.5961 142.739C80.5461 143.123 81.3628 143.681 82.0461 144.414C82.7294 145.148 83.2544 146.048 83.6211 147.114ZM67.5961 152.689V152.214H85.6961C85.9294 152.214 86.0961 152.148 86.1961 152.014C86.2961 151.881 86.3461 151.631 86.3461 151.264C86.3461 149.514 86.0878 147.964 85.5711 146.614C85.0711 145.264 84.3794 144.131 83.4961 143.214C82.6128 142.281 81.5711 141.573 80.3711 141.089C79.1711 140.606 77.8711 140.364 76.4711 140.364C74.7044 140.364 73.1211 140.673 71.7211 141.289C70.3378 141.906 69.1628 142.764 68.1961 143.864C67.2461 144.948 66.5128 146.248 65.9961 147.764C65.4961 149.264 65.2461 150.906 65.2461 152.689C65.2461 154.806 65.5128 156.689 66.0461 158.339C66.5961 159.973 67.3711 161.356 68.3711 162.489C69.3711 163.623 70.5711 164.489 71.9711 165.089C73.3711 165.673 74.9211 165.964 76.6211 165.964C77.5544 165.964 78.4794 165.873 79.3961 165.689C80.3294 165.506 81.1961 165.264 81.9961 164.964C82.8128 164.648 83.5461 164.273 84.1961 163.839C84.8628 163.406 85.3961 162.939 85.7961 162.439L85.1461 161.639C85.0294 161.473 84.8628 161.389 84.6461 161.389C84.4794 161.389 84.2128 161.531 83.8461 161.814C83.4794 162.081 82.9794 162.389 82.3461 162.739C81.7294 163.073 80.9628 163.381 80.0461 163.664C79.1294 163.931 78.0461 164.064 76.7961 164.064C75.3961 164.064 74.1294 163.823 72.9961 163.339C71.8628 162.856 70.8961 162.139 70.0961 161.189C69.2961 160.223 68.6794 159.031 68.2461 157.614C67.8128 156.198 67.5961 154.556 67.5961 152.689ZM121.767 165.639L136.367 129.489H130.942C130.375 129.489 129.892 129.648 129.492 129.964C129.108 130.281 128.85 130.631 128.717 131.014L120.242 153.064C119.958 153.781 119.7 154.573 119.467 155.439C119.233 156.289 119.017 157.181 118.817 158.114C118.583 157.181 118.333 156.289 118.067 155.439C117.817 154.573 117.55 153.781 117.267 153.064L108.742 131.014C108.558 130.564 108.283 130.198 107.917 129.914C107.55 129.631 107.075 129.489 106.492 129.489H101.092L115.692 165.639H121.767ZM144.375 155.164C145.592 154.931 147.092 154.773 148.875 154.689V159.014C147.992 159.948 147.083 160.648 146.15 161.114C145.233 161.564 144.142 161.789 142.875 161.789C141.842 161.789 141 161.556 140.35 161.089C139.717 160.623 139.4 159.848 139.4 158.764C139.4 158.214 139.558 157.706 139.875 157.239C140.192 156.773 140.717 156.364 141.45 156.014C142.183 155.664 143.158 155.381 144.375 155.164ZM145.375 139.514C141.225 139.514 137.675 140.864 134.725 143.564L135.825 145.539C136.008 145.839 136.25 146.106 136.55 146.339C136.85 146.556 137.217 146.664 137.65 146.664C138.15 146.664 138.6 146.548 139 146.314C139.417 146.081 139.875 145.823 140.375 145.539C140.875 145.239 141.45 144.973 142.1 144.739C142.767 144.506 143.6 144.389 144.6 144.389C145.983 144.389 147.042 144.806 147.775 145.639C148.508 146.456 148.875 147.723 148.875 149.439V150.939C146.925 150.989 145.192 151.139 143.675 151.389C142.158 151.623 140.825 151.931 139.675 152.314C138.542 152.698 137.583 153.148 136.8 153.664C136.017 154.181 135.375 154.731 134.875 155.314C134.392 155.898 134.042 156.514 133.825 157.164C133.608 157.798 133.5 158.439 133.5 159.089C133.5 160.239 133.683 161.248 134.05 162.114C134.417 162.981 134.933 163.706 135.6 164.289C136.267 164.873 137.058 165.314 137.975 165.614C138.892 165.898 139.892 166.039 140.975 166.039C141.892 166.039 142.725 165.956 143.475 165.789C144.242 165.639 144.958 165.414 145.625 165.114C146.292 164.814 146.933 164.448 147.55 164.014C148.167 163.564 148.8 163.048 149.45 162.464L150 164.314C150.183 164.848 150.433 165.206 150.75 165.389C151.067 165.556 151.517 165.639 152.1 165.639H154.9V149.439C154.9 147.989 154.683 146.656 154.25 145.439C153.833 144.223 153.217 143.181 152.4 142.314C151.583 141.431 150.583 140.748 149.4 140.264C148.217 139.764 146.875 139.514 145.375 139.514ZM172.091 151.889C171.524 152.089 170.857 152.189 170.091 152.189C169.341 152.189 168.674 152.089 168.091 151.889C167.524 151.673 167.049 151.381 166.666 151.014C166.299 150.631 166.016 150.181 165.816 149.664C165.632 149.148 165.541 148.589 165.541 147.989C165.541 146.723 165.916 145.723 166.666 144.989C167.432 144.239 168.574 143.864 170.091 143.864C171.607 143.864 172.741 144.239 173.491 144.989C174.257 145.723 174.641 146.723 174.641 147.989C174.641 148.606 174.541 149.173 174.341 149.689C174.157 150.206 173.874 150.648 173.491 151.014C173.124 151.381 172.657 151.673 172.091 151.889ZM176.616 165.564C176.916 165.881 177.066 166.289 177.066 166.789C177.066 167.289 176.941 167.748 176.691 168.164C176.441 168.598 176.041 168.964 175.491 169.264C174.957 169.581 174.274 169.823 173.441 169.989C172.607 170.173 171.616 170.264 170.466 170.264C169.332 170.264 168.374 170.181 167.591 170.014C166.807 169.864 166.166 169.648 165.666 169.364C165.182 169.081 164.824 168.739 164.591 168.339C164.374 167.956 164.266 167.539 164.266 167.089C164.266 166.406 164.474 165.806 164.891 165.289C165.324 164.773 165.882 164.323 166.566 163.939C167.349 164.039 168.149 164.106 168.966 164.139C169.799 164.173 170.599 164.214 171.366 164.264C172.149 164.298 172.882 164.356 173.566 164.439C174.266 164.523 174.874 164.656 175.391 164.839C175.907 165.006 176.316 165.248 176.616 165.564ZM183.216 143.164V140.864H175.841C175.041 140.431 174.157 140.106 173.191 139.889C172.224 139.656 171.191 139.539 170.091 139.539C168.624 139.539 167.266 139.731 166.016 140.114C164.782 140.498 163.707 141.056 162.791 141.789C161.891 142.506 161.182 143.381 160.666 144.414C160.166 145.431 159.916 146.573 159.916 147.839C159.916 149.406 160.282 150.773 161.016 151.939C161.766 153.106 162.791 154.039 164.091 154.739C163.524 155.023 163.032 155.348 162.616 155.714C162.199 156.064 161.849 156.439 161.566 156.839C161.299 157.239 161.091 157.648 160.941 158.064C160.807 158.464 160.741 158.856 160.741 159.239C160.741 160.189 160.941 160.956 161.341 161.539C161.741 162.123 162.282 162.589 162.966 162.939C161.699 163.423 160.699 164.073 159.966 164.889C159.249 165.689 158.891 166.689 158.891 167.889C158.891 168.773 159.124 169.623 159.591 170.439C160.057 171.256 160.766 171.973 161.716 172.589C162.666 173.223 163.857 173.723 165.291 174.089C166.724 174.473 168.407 174.664 170.341 174.664C172.307 174.664 174.057 174.406 175.591 173.889C177.141 173.389 178.441 172.723 179.491 171.889C180.557 171.056 181.366 170.106 181.916 169.039C182.482 167.973 182.766 166.873 182.766 165.739C182.766 164.523 182.524 163.531 182.041 162.764C181.574 161.981 180.949 161.364 180.166 160.914C179.382 160.464 178.491 160.139 177.491 159.939C176.491 159.723 175.466 159.573 174.416 159.489C173.366 159.406 172.341 159.356 171.341 159.339C170.341 159.306 169.449 159.239 168.666 159.139C167.882 159.039 167.249 158.873 166.766 158.639C166.299 158.389 166.066 158.006 166.066 157.489C166.066 156.889 166.466 156.348 167.266 155.864C167.716 155.948 168.174 156.014 168.641 156.064C169.107 156.114 169.591 156.139 170.091 156.139C171.507 156.139 172.824 155.948 174.041 155.564C175.274 155.164 176.341 154.606 177.241 153.889C178.141 153.173 178.841 152.306 179.341 151.289C179.857 150.256 180.116 149.106 180.116 147.839C180.116 146.789 179.941 145.823 179.591 144.939L181.891 144.514C182.774 144.348 183.216 143.898 183.216 143.164ZM196.182 155.164C197.398 154.931 198.898 154.773 200.682 154.689V159.014C199.798 159.948 198.89 160.648 197.957 161.114C197.04 161.564 195.948 161.789 194.682 161.789C193.648 161.789 192.807 161.556 192.157 161.089C191.523 160.623 191.207 159.848 191.207 158.764C191.207 158.214 191.365 157.706 191.682 157.239C191.998 156.773 192.523 156.364 193.257 156.014C193.99 155.664 194.965 155.381 196.182 155.164ZM197.182 139.514C193.032 139.514 189.482 140.864 186.532 143.564L187.632 145.539C187.815 145.839 188.057 146.106 188.357 146.339C188.657 146.556 189.023 146.664 189.457 146.664C189.957 146.664 190.407 146.548 190.807 146.314C191.223 146.081 191.682 145.823 192.182 145.539C192.682 145.239 193.257 144.973 193.907 144.739C194.573 144.506 195.407 144.389 196.407 144.389C197.79 144.389 198.848 144.806 199.582 145.639C200.315 146.456 200.682 147.723 200.682 149.439V150.939C198.732 150.989 196.998 151.139 195.482 151.389C193.965 151.623 192.632 151.931 191.482 152.314C190.348 152.698 189.39 153.148 188.607 153.664C187.823 154.181 187.182 154.731 186.682 155.314C186.198 155.898 185.848 156.514 185.632 157.164C185.415 157.798 185.307 158.439 185.307 159.089C185.307 160.239 185.49 161.248 185.857 162.114C186.223 162.981 186.74 163.706 187.407 164.289C188.073 164.873 188.865 165.314 189.782 165.614C190.698 165.898 191.698 166.039 192.782 166.039C193.698 166.039 194.532 165.956 195.282 165.789C196.048 165.639 196.765 165.414 197.432 165.114C198.098 164.814 198.74 164.448 199.357 164.014C199.973 163.564 200.607 163.048 201.257 162.464L201.807 164.314C201.99 164.848 202.24 165.206 202.557 165.389C202.873 165.556 203.323 165.639 203.907 165.639H206.707V149.439C206.707 147.989 206.49 146.656 206.057 145.439C205.64 144.223 205.023 143.181 204.207 142.314C203.39 141.431 202.39 140.748 201.207 140.264C200.023 139.764 198.682 139.514 197.182 139.514ZM227.647 145.564C227.831 145.448 228.006 145.256 228.172 144.989L229.572 142.764C228.606 141.814 227.397 141.048 225.947 140.464C224.497 139.881 222.889 139.589 221.122 139.589C219.539 139.589 218.139 139.806 216.922 140.239C215.722 140.656 214.714 141.223 213.897 141.939C213.097 142.639 212.489 143.464 212.072 144.414C211.656 145.364 211.447 146.364 211.447 147.414C211.447 148.548 211.622 149.514 211.972 150.314C212.339 151.114 212.814 151.789 213.397 152.339C213.997 152.889 214.672 153.348 215.422 153.714C216.189 154.064 216.964 154.373 217.747 154.639C218.547 154.906 219.322 155.156 220.072 155.389C220.839 155.606 221.514 155.856 222.097 156.139C222.697 156.423 223.172 156.756 223.522 157.139C223.889 157.523 224.072 158.014 224.072 158.614C224.072 159.014 223.989 159.406 223.822 159.789C223.672 160.156 223.422 160.481 223.072 160.764C222.739 161.048 222.306 161.281 221.772 161.464C221.256 161.631 220.631 161.714 219.897 161.714C218.964 161.714 218.189 161.606 217.572 161.389C216.972 161.173 216.447 160.939 215.997 160.689C215.547 160.439 215.147 160.206 214.797 159.989C214.464 159.773 214.106 159.664 213.722 159.664C213.339 159.664 213.022 159.739 212.772 159.889C212.522 160.039 212.306 160.256 212.122 160.539L210.697 162.889C211.197 163.339 211.772 163.756 212.422 164.139C213.089 164.523 213.806 164.856 214.572 165.139C215.356 165.423 216.164 165.639 216.997 165.789C217.847 165.956 218.714 166.039 219.597 166.039C221.264 166.039 222.731 165.831 223.997 165.414C225.281 164.981 226.356 164.389 227.222 163.639C228.089 162.873 228.739 161.973 229.172 160.939C229.622 159.889 229.847 158.748 229.847 157.514C229.847 156.481 229.664 155.598 229.297 154.864C228.947 154.131 228.472 153.506 227.872 152.989C227.289 152.456 226.622 152.023 225.872 151.689C225.122 151.339 224.356 151.031 223.572 150.764C222.806 150.498 222.047 150.256 221.297 150.039C220.547 149.806 219.872 149.548 219.272 149.264C218.689 148.981 218.214 148.656 217.847 148.289C217.497 147.906 217.322 147.439 217.322 146.889C217.322 146.056 217.664 145.381 218.347 144.864C219.047 144.348 220.006 144.089 221.222 144.089C222.006 144.089 222.681 144.173 223.247 144.339C223.831 144.506 224.347 144.698 224.797 144.914C225.247 145.114 225.639 145.298 225.972 145.464C226.322 145.631 226.647 145.714 226.947 145.714C227.231 145.714 227.464 145.664 227.647 145.564Z" fill="white"/>
</svg>
