<svg width="53" height="53" viewBox="0 0 53 53" fill="none" xmlns="http://www.w3.org/2000/svg">
<path d="M26.3284 52.4401C40.7872 52.4401 52.5085 40.7189 52.5085 26.2601C52.5085 11.8013 40.7872 0.0800781 26.3284 0.0800781C11.8696 0.0800781 0.148438 11.8013 0.148438 26.2601C0.148438 40.7189 11.8696 52.4401 26.3284 52.4401Z" fill="#387CA6"/>
<path d="M39.2186 15.2107C39.5486 15.4807 34.6586 22.0607 28.2986 29.9007L24.4386 34.5807L24.4228 34.5998C24.1486 34.931 23.6473 34.9501 23.3486 34.6407C18.3486 29.5107 14.9786 25.7107 15.2186 25.4707C15.4528 25.2366 19.0858 28.4584 24.0183 33.2318C24.1647 33.3735 24.0793 33.6222 23.8766 33.6429C23.6652 33.6644 23.5324 33.4207 23.665 33.2547L27.0886 28.9707C33.4486 21.0807 38.8786 14.9407 39.2186 15.2107Z" fill="white"/>
</svg>
